<svg width="185" height="50" viewBox="0 0 185 50" fill="none" xmlns="http://www.w3.org/2000/svg">
<path d="M9.408 0.968999V11H8.05V6.436H2.639V11H1.281V0.968999H2.639V5.442H8.05V0.968999H9.408ZM15.3163 7.808C14.7423 7.82667 14.2523 7.87333 13.8463 7.948C13.445 8.018 13.116 8.11133 12.8593 8.228C12.6073 8.34467 12.423 8.48233 12.3063 8.641C12.1943 8.79967 12.1383 8.977 12.1383 9.173C12.1383 9.35967 12.1687 9.52067 12.2293 9.656C12.29 9.79133 12.3717 9.90333 12.4743 9.992C12.5817 10.076 12.7053 10.139 12.8453 10.181C12.99 10.2183 13.144 10.237 13.3073 10.237C13.5267 10.237 13.7273 10.216 13.9093 10.174C14.0913 10.1273 14.2617 10.062 14.4203 9.978C14.5837 9.894 14.7377 9.79367 14.8823 9.677C15.0317 9.56033 15.1763 9.42733 15.3163 9.278V7.808ZM11.2913 4.91C11.6833 4.532 12.1057 4.24967 12.5583 4.063C13.011 3.87633 13.5127 3.783 14.0633 3.783C14.46 3.783 14.8123 3.84833 15.1203 3.979C15.4283 4.10967 15.6873 4.29167 15.8973 4.525C16.1073 4.75833 16.266 5.04067 16.3733 5.372C16.4807 5.70333 16.5343 6.06733 16.5343 6.464V11H15.9813C15.86 11 15.7667 10.9813 15.7013 10.944C15.636 10.902 15.5847 10.8227 15.5473 10.706L15.4073 10.034C15.2207 10.2067 15.0387 10.3607 14.8613 10.496C14.684 10.6267 14.4973 10.7387 14.3013 10.832C14.1053 10.9207 13.8953 10.9883 13.6713 11.035C13.452 11.0863 13.207 11.112 12.9363 11.112C12.661 11.112 12.402 11.0747 12.1593 11C11.9167 10.9207 11.7043 10.804 11.5223 10.65C11.345 10.496 11.2027 10.3023 11.0953 10.069C10.9927 9.831 10.9413 9.551 10.9413 9.229C10.9413 8.949 11.0183 8.68067 11.1723 8.424C11.3263 8.16267 11.576 7.93167 11.9213 7.731C12.2667 7.53033 12.717 7.367 13.2723 7.241C13.8277 7.11033 14.509 7.03567 15.3163 7.017V6.464C15.3163 5.91333 15.1973 5.498 14.9593 5.218C14.7213 4.93333 14.3737 4.791 13.9163 4.791C13.6083 4.791 13.3493 4.83067 13.1393 4.91C12.934 4.98467 12.7543 5.071 12.6003 5.169C12.451 5.26233 12.3203 5.34867 12.2083 5.428C12.101 5.50267 11.9937 5.54 11.8863 5.54C11.8023 5.54 11.73 5.519 11.6693 5.477C11.6087 5.43033 11.5573 5.37433 11.5153 5.309L11.2913 4.91ZM23.3183 10.09V4.889H21.0713C21.0246 5.617 20.9593 6.261 20.8753 6.821C20.7913 7.381 20.6933 7.87333 20.5813 8.298C20.474 8.718 20.3526 9.075 20.2173 9.369C20.0866 9.663 19.949 9.90333 19.8043 10.09H23.3183ZM25.8243 10.055V13.058C25.8243 13.1793 25.7893 13.2727 25.7193 13.338C25.654 13.408 25.5676 13.443 25.4603 13.443H24.6973V11H18.7333V13.086C18.7333 13.1747 18.7053 13.2563 18.6493 13.331C18.598 13.4057 18.5116 13.443 18.3903 13.443H17.6063V10.09H17.8373C18.0006 10.09 18.1616 10.062 18.3203 10.006C18.4836 9.95 18.64 9.845 18.7893 9.691C18.9386 9.53233 19.0786 9.31067 19.2093 9.026C19.3446 8.74133 19.466 8.37033 19.5733 7.913C19.6806 7.45567 19.774 6.90033 19.8533 6.247C19.9326 5.589 19.9956 4.80967 20.0423 3.909H24.5293V10.055H25.8243ZM31.7096 6.681C31.7096 6.39167 31.6676 6.128 31.5836 5.89C31.5042 5.64733 31.3852 5.43967 31.2266 5.267C31.0726 5.08967 30.8836 4.95433 30.6596 4.861C30.4356 4.763 30.1812 4.714 29.8966 4.714C29.2992 4.714 28.8256 4.889 28.4756 5.239C28.1302 5.58433 27.9156 6.065 27.8316 6.681H31.7096ZM32.7176 10.006C32.5636 10.1927 32.3792 10.356 32.1646 10.496C31.9499 10.6313 31.7189 10.7433 31.4716 10.832C31.2289 10.9207 30.9769 10.986 30.7156 11.028C30.4542 11.0747 30.1952 11.098 29.9386 11.098C29.4486 11.098 28.9959 11.0163 28.5806 10.853C28.1699 10.685 27.8129 10.4423 27.5096 10.125C27.2109 9.803 26.9776 9.40633 26.8096 8.935C26.6416 8.46367 26.5576 7.92233 26.5576 7.311C26.5576 6.81633 26.6322 6.35433 26.7816 5.925C26.9356 5.49567 27.1549 5.12467 27.4396 4.812C27.7242 4.49467 28.0719 4.24733 28.4826 4.07C28.8932 3.888 29.3552 3.797 29.8686 3.797C30.2932 3.797 30.6852 3.86933 31.0446 4.014C31.4086 4.154 31.7212 4.35933 31.9826 4.63C32.2486 4.896 32.4562 5.22733 32.6056 5.624C32.7549 6.016 32.8296 6.464 32.8296 6.968C32.8296 7.164 32.8086 7.29467 32.7666 7.36C32.7246 7.42533 32.6452 7.458 32.5286 7.458H27.7896C27.8036 7.906 27.8642 8.29567 27.9716 8.627C28.0836 8.95833 28.2376 9.236 28.4336 9.46C28.6296 9.67933 28.8629 9.845 29.1336 9.957C29.4042 10.0643 29.7076 10.118 30.0436 10.118C30.3562 10.118 30.6246 10.083 30.8486 10.013C31.0772 9.93833 31.2732 9.859 31.4366 9.775C31.5999 9.691 31.7352 9.614 31.8426 9.544C31.9546 9.46933 32.0502 9.432 32.1296 9.432C32.2322 9.432 32.3116 9.47167 32.3676 9.551L32.7176 10.006ZM44.1754 11H43.3074C43.0834 11 42.9107 10.965 42.7894 10.895C42.6727 10.825 42.5817 10.7153 42.5164 10.566L41.1374 8.361C40.9087 7.997 40.5797 7.815 40.1504 7.815H39.4364V11.007H38.2254V7.815H37.5184C37.3084 7.815 37.117 7.86167 36.9444 7.955C36.7764 8.04833 36.6387 8.18367 36.5314 8.361L35.1524 10.566C35.0824 10.7153 34.9867 10.825 34.8654 10.895C34.7487 10.965 34.5784 11 34.3544 11H33.4934L35.3554 8.067C35.4767 7.86167 35.6144 7.696 35.7684 7.57C35.9224 7.444 36.1114 7.34833 36.3354 7.283C36.158 7.227 36.0064 7.14533 35.8804 7.038C35.759 6.926 35.6447 6.78367 35.5374 6.611L33.6894 3.909H34.6694C34.7907 3.909 34.9004 3.94167 34.9984 4.007C35.0964 4.06767 35.1734 4.15167 35.2294 4.259L36.7344 6.499C36.837 6.653 36.9607 6.772 37.1054 6.856C37.25 6.93533 37.4204 6.975 37.6164 6.975H38.2254V3.909H39.4364V6.975H40.0314C40.428 6.975 40.7267 6.81633 40.9274 6.499L42.4324 4.259C42.4884 4.15167 42.5654 4.06767 42.6634 4.007C42.766 3.94167 42.878 3.909 42.9994 3.909H43.9794L42.1314 6.611C42.024 6.78367 41.9074 6.926 41.7814 7.038C41.66 7.14533 41.5107 7.227 41.3334 7.283C41.5574 7.34833 41.7464 7.444 41.9004 7.57C42.0544 7.696 42.192 7.86167 42.3134 8.067L44.1754 11ZM51.2466 3.909V11H49.9936V7.682H46.5916V11H45.3386V3.909H46.5916V6.737H49.9936V3.909H51.2466ZM55.9502 10.09C56.2022 10.09 56.4192 10.0597 56.6012 9.999C56.7879 9.93367 56.9419 9.845 57.0632 9.733C57.1846 9.61633 57.2756 9.481 57.3362 9.327C57.3969 9.173 57.4272 9.005 57.4272 8.823C57.4272 8.655 57.4016 8.49867 57.3502 8.354C57.2989 8.20467 57.2126 8.074 57.0912 7.962C56.9746 7.85 56.8206 7.76133 56.6292 7.696C56.4379 7.63067 56.2046 7.598 55.9292 7.598H54.4172V10.09H55.9502ZM55.9292 6.688C56.4192 6.688 56.8299 6.74633 57.1612 6.863C57.4972 6.97967 57.7656 7.136 57.9662 7.332C58.1716 7.528 58.3186 7.75433 58.4072 8.011C58.4959 8.26767 58.5402 8.53367 58.5402 8.809C58.5402 9.12633 58.4842 9.42033 58.3722 9.691C58.2602 9.957 58.0946 10.188 57.8752 10.384C57.6559 10.5753 57.3852 10.727 57.0632 10.839C56.7412 10.9463 56.3702 11 55.9502 11H53.2272V3.909H54.4172V6.688H55.9292ZM61.3472 3.909V11H60.1012V3.909H61.3472ZM69.4137 3.909V11H68.1678V6.184C68.1678 6.09067 68.1724 5.99033 68.1818 5.883C68.1911 5.77567 68.2028 5.66833 68.2168 5.561C68.1748 5.65433 68.1328 5.74067 68.0908 5.82C68.0488 5.89933 68.0044 5.97167 67.9578 6.037L64.5348 10.692C64.4834 10.7667 64.4181 10.839 64.3388 10.909C64.2641 10.9743 64.1801 11.007 64.0868 11.007H63.3308V3.916H64.5838V8.732C64.5838 8.82067 64.5791 8.91867 64.5698 9.026C64.5604 9.12867 64.5488 9.23367 64.5348 9.341C64.5768 9.25233 64.6188 9.17067 64.6608 9.096C64.7028 9.01667 64.7448 8.94433 64.7868 8.879L68.2098 4.224C68.2611 4.14933 68.3264 4.07933 68.4058 4.014C68.4851 3.944 68.5714 3.909 68.6648 3.909H69.4137ZM66.4528 2.194C66.6441 2.194 66.8051 2.173 66.9358 2.131C67.0664 2.08433 67.1714 2.012 67.2508 1.914C67.3348 1.816 67.3954 1.69 67.4328 1.536C67.4701 1.382 67.4888 1.193 67.4888 0.968999H68.2168C68.3054 0.968999 68.3731 1.00867 68.4198 1.088C68.4664 1.16733 68.4898 1.25367 68.4898 1.347C68.4898 1.58033 68.4431 1.79033 68.3498 1.977C68.2564 2.16367 68.1211 2.32467 67.9438 2.46C67.7711 2.59067 67.5588 2.691 67.3068 2.761C67.0548 2.831 66.7701 2.866 66.4528 2.866C66.1354 2.866 65.8508 2.831 65.5988 2.761C65.3468 2.691 65.1321 2.59067 64.9548 2.46C64.7821 2.32467 64.6491 2.16367 64.5558 1.977C64.4624 1.79033 64.4158 1.58033 64.4158 1.347C64.4158 1.25367 64.4391 1.16733 64.4858 1.088C64.5324 1.00867 64.6001 0.968999 64.6888 0.968999H65.4168C65.4168 1.193 65.4354 1.382 65.4728 1.536C65.5101 1.69 65.5684 1.816 65.6478 1.914C65.7318 2.012 65.8391 2.08433 65.9698 2.131C66.1004 2.173 66.2614 2.194 66.4528 2.194ZM79.9005 5.169C79.8632 5.22033 79.8258 5.26 79.7885 5.288C79.7512 5.316 79.6998 5.33 79.6345 5.33C79.5645 5.33 79.4875 5.302 79.4035 5.246C79.3195 5.18533 79.2145 5.12 79.0885 5.05C78.9672 4.98 78.8155 4.917 78.6335 4.861C78.4562 4.80033 78.2368 4.77 77.9755 4.77C77.6255 4.77 77.3175 4.833 77.0515 4.959C76.7855 5.08033 76.5615 5.25767 76.3795 5.491C76.2022 5.72433 76.0668 6.00667 75.9735 6.338C75.8848 6.66933 75.8405 7.04033 75.8405 7.451C75.8405 7.88033 75.8895 8.263 75.9875 8.599C76.0855 8.93033 76.2232 9.21033 76.4005 9.439C76.5825 9.663 76.7995 9.83567 77.0515 9.957C77.3082 10.0737 77.5952 10.132 77.9125 10.132C78.2158 10.132 78.4655 10.097 78.6615 10.027C78.8575 9.95233 79.0185 9.87067 79.1445 9.782C79.2752 9.69333 79.3825 9.614 79.4665 9.544C79.5552 9.46933 79.6415 9.432 79.7255 9.432C79.8282 9.432 79.9075 9.47167 79.9635 9.551L80.3135 10.006C80.1595 10.1973 79.9845 10.3607 79.7885 10.496C79.5925 10.6313 79.3802 10.7457 79.1515 10.839C78.9275 10.9277 78.6918 10.993 78.4445 11.035C78.1972 11.077 77.9452 11.098 77.6885 11.098C77.2452 11.098 76.8322 11.0163 76.4495 10.853C76.0715 10.6897 75.7425 10.454 75.4625 10.146C75.1825 9.83333 74.9632 9.45067 74.8045 8.998C74.6458 8.54533 74.5665 8.02967 74.5665 7.451C74.5665 6.92367 74.6388 6.436 74.7835 5.988C74.9328 5.54 75.1475 5.155 75.4275 4.833C75.7122 4.50633 76.0598 4.252 76.4705 4.07C76.8858 3.888 77.3618 3.797 77.8985 3.797C78.3978 3.797 78.8365 3.87867 79.2145 4.042C79.5972 4.20067 79.9355 4.427 80.2295 4.721L79.9005 5.169ZM86.274 6.681C86.274 6.39167 86.232 6.128 86.148 5.89C86.0687 5.64733 85.9497 5.43967 85.791 5.267C85.637 5.08967 85.448 4.95433 85.224 4.861C85 4.763 84.7457 4.714 84.461 4.714C83.8637 4.714 83.39 4.889 83.04 5.239C82.6947 5.58433 82.48 6.065 82.396 6.681H86.274ZM87.282 10.006C87.128 10.1927 86.9437 10.356 86.729 10.496C86.5143 10.6313 86.2833 10.7433 86.036 10.832C85.7933 10.9207 85.5413 10.986 85.28 11.028C85.0187 11.0747 84.7597 11.098 84.503 11.098C84.013 11.098 83.5603 11.0163 83.145 10.853C82.7343 10.685 82.3773 10.4423 82.074 10.125C81.7753 9.803 81.542 9.40633 81.374 8.935C81.206 8.46367 81.122 7.92233 81.122 7.311C81.122 6.81633 81.1967 6.35433 81.346 5.925C81.5 5.49567 81.7193 5.12467 82.004 4.812C82.2887 4.49467 82.6363 4.24733 83.047 4.07C83.4577 3.888 83.9197 3.797 84.433 3.797C84.8577 3.797 85.2497 3.86933 85.609 4.014C85.973 4.154 86.2857 4.35933 86.547 4.63C86.813 4.896 87.0207 5.22733 87.17 5.624C87.3193 6.016 87.394 6.464 87.394 6.968C87.394 7.164 87.373 7.29467 87.331 7.36C87.289 7.42533 87.2097 7.458 87.093 7.458H82.354C82.368 7.906 82.4287 8.29567 82.536 8.627C82.648 8.95833 82.802 9.236 82.998 9.46C83.194 9.67933 83.4273 9.845 83.698 9.957C83.9687 10.0643 84.272 10.118 84.608 10.118C84.9207 10.118 85.189 10.083 85.413 10.013C85.6417 9.93833 85.8377 9.859 86.001 9.775C86.1643 9.691 86.2997 9.614 86.407 9.544C86.519 9.46933 86.6147 9.432 86.694 9.432C86.7967 9.432 86.876 9.47167 86.932 9.551L87.282 10.006ZM90.1775 9.292C90.4062 9.6 90.6558 9.817 90.9265 9.943C91.1972 10.069 91.5005 10.132 91.8365 10.132C92.4992 10.132 93.0078 9.89633 93.3625 9.425C93.7172 8.95367 93.8945 8.28167 93.8945 7.409C93.8945 6.947 93.8525 6.55033 93.7685 6.219C93.6892 5.88767 93.5725 5.617 93.4185 5.407C93.2645 5.19233 93.0755 5.036 92.8515 4.938C92.6275 4.84 92.3732 4.791 92.0885 4.791C91.6825 4.791 91.3255 4.88433 91.0175 5.071C90.7142 5.25767 90.4342 5.52133 90.1775 5.862V9.292ZM90.1145 5.008C90.4132 4.63933 90.7585 4.343 91.1505 4.119C91.5425 3.895 91.9905 3.783 92.4945 3.783C92.9052 3.783 93.2762 3.86233 93.6075 4.021C93.9388 4.175 94.2212 4.406 94.4545 4.714C94.6878 5.01733 94.8675 5.39533 94.9935 5.848C95.1195 6.30067 95.1825 6.821 95.1825 7.409C95.1825 7.93167 95.1125 8.41933 94.9725 8.872C94.8325 9.32 94.6295 9.70967 94.3635 10.041C94.1022 10.3677 93.7802 10.6267 93.3975 10.818C93.0195 11.0047 92.5925 11.098 92.1165 11.098C91.6825 11.098 91.3092 11.0257 90.9965 10.881C90.6885 10.7317 90.4155 10.5263 90.1775 10.265V13.401H88.9245V3.909H89.6735C89.8508 3.909 89.9605 3.99533 90.0025 4.168L90.1145 5.008ZM99.4815 10.125C99.9482 10.125 100.317 10.0177 100.587 9.803C100.858 9.58367 100.993 9.285 100.993 8.907C100.993 8.739 100.968 8.58733 100.916 8.452C100.865 8.312 100.781 8.19067 100.664 8.088C100.548 7.98533 100.391 7.906 100.195 7.85C100.004 7.794 99.7685 7.766 99.4885 7.766H97.9555V10.125H99.4815ZM97.9555 4.749V6.975H99.3205C99.5258 6.975 99.7148 6.947 99.8875 6.891C100.065 6.83033 100.216 6.74867 100.342 6.646C100.468 6.53867 100.566 6.41267 100.636 6.268C100.706 6.11867 100.741 5.95533 100.741 5.778C100.741 5.64733 100.718 5.52133 100.671 5.4C100.625 5.274 100.545 5.16433 100.433 5.071C100.321 4.973 100.174 4.896 99.9925 4.84C99.8105 4.77933 99.5865 4.749 99.3205 4.749H97.9555ZM99.3555 3.909C99.7942 3.909 100.17 3.95333 100.482 4.042C100.795 4.13067 101.052 4.252 101.252 4.406C101.453 4.55533 101.6 4.73267 101.693 4.938C101.787 5.14333 101.833 5.36267 101.833 5.596C101.833 5.75 101.812 5.911 101.77 6.079C101.728 6.247 101.654 6.408 101.546 6.562C101.444 6.716 101.301 6.856 101.119 6.982C100.942 7.10333 100.718 7.199 100.447 7.269C100.989 7.36233 101.406 7.55133 101.7 7.836C101.994 8.116 102.141 8.487 102.141 8.949C102.141 9.29433 102.071 9.59533 101.931 9.852C101.796 10.104 101.607 10.3163 101.364 10.489C101.126 10.6617 100.846 10.79 100.524 10.874C100.202 10.958 99.8572 11 99.4885 11H96.7585V3.909H99.3555ZM109.787 3.909V11H108.541V6.184C108.541 6.09067 108.545 5.99033 108.555 5.883C108.564 5.77567 108.576 5.66833 108.59 5.561C108.548 5.65433 108.506 5.74067 108.464 5.82C108.422 5.89933 108.377 5.97167 108.331 6.037L104.908 10.692C104.856 10.7667 104.791 10.839 104.712 10.909C104.637 10.9743 104.553 11.007 104.46 11.007H103.704V3.916H104.957V8.732C104.957 8.82067 104.952 8.91867 104.943 9.026C104.933 9.12867 104.922 9.23367 104.908 9.341C104.95 9.25233 104.992 9.17067 105.034 9.096C105.076 9.01667 105.118 8.94433 105.16 8.879L108.583 4.224C108.634 4.14933 108.699 4.07933 108.779 4.014C108.858 3.944 108.944 3.909 109.038 3.909H109.787ZM116.692 5.169C116.654 5.22033 116.617 5.26 116.58 5.288C116.542 5.316 116.491 5.33 116.426 5.33C116.356 5.33 116.279 5.302 116.195 5.246C116.111 5.18533 116.006 5.12 115.88 5.05C115.758 4.98 115.607 4.917 115.425 4.861C115.247 4.80033 115.028 4.77 114.767 4.77C114.417 4.77 114.109 4.833 113.843 4.959C113.577 5.08033 113.353 5.25767 113.171 5.491C112.993 5.72433 112.858 6.00667 112.765 6.338C112.676 6.66933 112.632 7.04033 112.632 7.451C112.632 7.88033 112.681 8.263 112.779 8.599C112.877 8.93033 113.014 9.21033 113.192 9.439C113.374 9.663 113.591 9.83567 113.843 9.957C114.099 10.0737 114.386 10.132 114.704 10.132C115.007 10.132 115.257 10.097 115.453 10.027C115.649 9.95233 115.81 9.87067 115.936 9.782C116.066 9.69333 116.174 9.614 116.258 9.544C116.346 9.46933 116.433 9.432 116.517 9.432C116.619 9.432 116.699 9.47167 116.755 9.551L117.105 10.006C116.951 10.1973 116.776 10.3607 116.58 10.496C116.384 10.6313 116.171 10.7457 115.943 10.839C115.719 10.9277 115.483 10.993 115.236 11.035C114.988 11.077 114.736 11.098 114.48 11.098C114.036 11.098 113.623 11.0163 113.241 10.853C112.863 10.6897 112.534 10.454 112.254 10.146C111.974 9.83333 111.754 9.45067 111.596 8.998C111.437 8.54533 111.358 8.02967 111.358 7.451C111.358 6.92367 111.43 6.436 111.575 5.988C111.724 5.54 111.939 5.155 112.219 4.833C112.503 4.50633 112.851 4.252 113.262 4.07C113.677 3.888 114.153 3.797 114.69 3.797C115.189 3.797 115.628 3.87867 116.006 4.042C116.388 4.20067 116.727 4.427 117.021 4.721L116.692 5.169ZM4.83 25.808C4.256 25.8267 3.766 25.8733 3.36 25.948C2.95867 26.018 2.62967 26.1113 2.373 26.228C2.121 26.3447 1.93667 26.4823 1.82 26.641C1.708 26.7997 1.652 26.977 1.652 27.173C1.652 27.3597 1.68233 27.5207 1.743 27.656C1.80367 27.7913 1.88533 27.9033 1.988 27.992C2.09533 28.076 2.219 28.139 2.359 28.181C2.50367 28.2183 2.65767 28.237 2.821 28.237C3.04033 28.237 3.241 28.216 3.423 28.174C3.605 28.1273 3.77533 28.062 3.934 27.978C4.09733 27.894 4.25133 27.7937 4.396 27.677C4.54533 27.5603 4.69 27.4273 4.83 27.278V25.808ZM0.805 22.91C1.197 22.532 1.61933 22.2497 2.072 22.063C2.52467 21.8763 3.02633 21.783 3.577 21.783C3.97367 21.783 4.326 21.8483 4.634 21.979C4.942 22.1097 5.201 22.2917 5.411 22.525C5.621 22.7583 5.77967 23.0407 5.887 23.372C5.99433 23.7033 6.048 24.0673 6.048 24.464V29H5.495C5.37367 29 5.28033 28.9813 5.215 28.944C5.14967 28.902 5.09833 28.8227 5.061 28.706L4.921 28.034C4.73433 28.2067 4.55233 28.3607 4.375 28.496C4.19767 28.6267 4.011 28.7387 3.815 28.832C3.619 28.9207 3.409 28.9883 3.185 29.035C2.96567 29.0863 2.72067 29.112 2.45 29.112C2.17467 29.112 1.91567 29.0747 1.673 29C1.43033 28.9207 1.218 28.804 1.036 28.65C0.858667 28.496 0.716333 28.3023 0.609 28.069C0.506333 27.831 0.455 27.551 0.455 27.229C0.455 26.949 0.532 26.6807 0.686 26.424C0.84 26.1627 1.08967 25.9317 1.435 25.731C1.78033 25.5303 2.23067 25.367 2.786 25.241C3.34133 25.1103 4.02267 25.0357 4.83 25.017V24.464C4.83 23.9133 4.711 23.498 4.473 23.218C4.235 22.9333 3.88733 22.791 3.43 22.791C3.122 22.791 2.863 22.8307 2.653 22.91C2.44767 22.9847 2.268 23.071 2.114 23.169C1.96467 23.2623 1.834 23.3487 1.722 23.428C1.61467 23.5027 1.50733 23.54 1.4 23.54C1.316 23.54 1.24367 23.519 1.183 23.477C1.12233 23.4303 1.071 23.3743 1.029 23.309L0.805 22.91ZM13.854 21.909V29H12.601V25.682H9.19898V29H7.94598V21.909H9.19898V24.737H12.601V21.909H13.854ZM19.6777 25.808C19.1037 25.8267 18.6137 25.8733 18.2077 25.948C17.8063 26.018 17.4773 26.1113 17.2207 26.228C16.9687 26.3447 16.7843 26.4823 16.6677 26.641C16.5557 26.7997 16.4997 26.977 16.4997 27.173C16.4997 27.3597 16.53 27.5207 16.5907 27.656C16.6513 27.7913 16.733 27.9033 16.8357 27.992C16.943 28.076 17.0667 28.139 17.2067 28.181C17.3513 28.2183 17.5053 28.237 17.6687 28.237C17.888 28.237 18.0887 28.216 18.2707 28.174C18.4527 28.1273 18.623 28.062 18.7817 27.978C18.945 27.894 19.099 27.7937 19.2437 27.677C19.393 27.5603 19.5377 27.4273 19.6777 27.278V25.808ZM15.6527 22.91C16.0447 22.532 16.467 22.2497 16.9197 22.063C17.3723 21.8763 17.874 21.783 18.4247 21.783C18.8213 21.783 19.1737 21.8483 19.4817 21.979C19.7897 22.1097 20.0487 22.2917 20.2587 22.525C20.4687 22.7583 20.6273 23.0407 20.7347 23.372C20.842 23.7033 20.8957 24.0673 20.8957 24.464V29H20.3427C20.2213 29 20.128 28.9813 20.0627 28.944C19.9973 28.902 19.946 28.8227 19.9087 28.706L19.7687 28.034C19.582 28.2067 19.4 28.3607 19.2227 28.496C19.0453 28.6267 18.8587 28.7387 18.6627 28.832C18.4667 28.9207 18.2567 28.9883 18.0327 29.035C17.8133 29.0863 17.5683 29.112 17.2977 29.112C17.0223 29.112 16.7633 29.0747 16.5207 29C16.278 28.9207 16.0657 28.804 15.8837 28.65C15.7063 28.496 15.564 28.3023 15.4567 28.069C15.354 27.831 15.3027 27.551 15.3027 27.229C15.3027 26.949 15.3797 26.6807 15.5337 26.424C15.6877 26.1627 15.9373 25.9317 16.2827 25.731C16.628 25.5303 17.0783 25.367 17.6337 25.241C18.189 25.1103 18.8703 25.0357 19.6777 25.017V24.464C19.6777 23.9133 19.5587 23.498 19.3207 23.218C19.0827 22.9333 18.735 22.791 18.2777 22.791C17.9697 22.791 17.7107 22.8307 17.5007 22.91C17.2953 22.9847 17.1157 23.071 16.9617 23.169C16.8123 23.2623 16.6817 23.3487 16.5697 23.428C16.4623 23.5027 16.355 23.54 16.2477 23.54C16.1637 23.54 16.0913 23.519 16.0307 23.477C15.97 23.4303 15.9187 23.3743 15.8767 23.309L15.6527 22.91ZM29.0096 29H27.7636V22.889H25.5236C25.4676 23.7897 25.3836 24.569 25.2716 25.227C25.1596 25.8803 25.0243 26.438 24.8656 26.9C24.7116 27.3573 24.5366 27.7307 24.3406 28.02C24.1493 28.3047 23.9463 28.5263 23.7316 28.685C23.5216 28.8437 23.3023 28.951 23.0736 29.007C22.8496 29.063 22.6256 29.091 22.4016 29.091C22.005 29.091 21.8066 29.028 21.8066 28.902V28.111H22.1706C22.3293 28.111 22.4903 28.083 22.6536 28.027C22.817 27.971 22.9756 27.8637 23.1296 27.705C23.2883 27.5463 23.44 27.3247 23.5846 27.04C23.7293 26.7507 23.86 26.3773 23.9766 25.92C24.098 25.458 24.2006 24.9003 24.2846 24.247C24.3733 23.589 24.441 22.8097 24.4876 21.909H29.0096V29ZM37.0661 21.909V29H35.8201V24.184C35.8201 24.0907 35.8248 23.9903 35.8341 23.883C35.8434 23.7757 35.8551 23.6683 35.8691 23.561C35.8271 23.6543 35.7851 23.7407 35.7431 23.82C35.7011 23.8993 35.6568 23.9717 35.6101 24.037L32.1871 28.692C32.1358 28.7667 32.0704 28.839 31.9911 28.909C31.9164 28.9743 31.8324 29.007 31.7391 29.007H30.9831V21.916H32.2361V26.732C32.2361 26.8207 32.2314 26.9187 32.2221 27.026C32.2128 27.1287 32.2011 27.2337 32.1871 27.341C32.2291 27.2523 32.2711 27.1707 32.3131 27.096C32.3551 27.0167 32.3971 26.9443 32.4391 26.879L35.8621 22.224C35.9134 22.1493 35.9788 22.0793 36.0581 22.014C36.1374 21.944 36.2238 21.909 36.3171 21.909H37.0661ZM44.9298 22.861H42.2068V29H40.9608V22.861H38.2378V21.909H44.9298V22.861ZM52.2009 21.909V29H50.9549V24.184C50.9549 24.0907 50.9595 23.9903 50.9689 23.883C50.9782 23.7757 50.9899 23.6683 51.0039 23.561C50.9619 23.6543 50.9199 23.7407 50.8779 23.82C50.8359 23.8993 50.7915 23.9717 50.7449 24.037L47.3219 28.692C47.2705 28.7667 47.2052 28.839 47.1259 28.909C47.0512 28.9743 46.9672 29.007 46.8739 29.007H46.1179V21.916H47.3709V26.732C47.3709 26.8207 47.3662 26.9187 47.3569 27.026C47.3475 27.1287 47.3359 27.2337 47.3219 27.341C47.3639 27.2523 47.4059 27.1707 47.4479 27.096C47.4899 27.0167 47.5319 26.9443 47.5739 26.879L50.9969 22.224C51.0482 22.1493 51.1135 22.0793 51.1929 22.014C51.2722 21.944 51.3585 21.909 51.4519 21.909H52.2009ZM58.4756 22.259C58.5409 22.1563 58.6273 22.0723 58.7346 22.007C58.8419 21.9417 58.9563 21.909 59.0776 21.909H60.0506L58.2096 24.611C58.0976 24.7837 57.9809 24.926 57.8596 25.038C57.7383 25.1453 57.5889 25.2293 57.4116 25.29C57.6356 25.3507 57.8246 25.4463 57.9786 25.577C58.1326 25.703 58.2703 25.8663 58.3916 26.067L60.2536 29H59.3856C59.1616 29 58.9889 28.9627 58.8676 28.888C58.7463 28.8133 58.6413 28.706 58.5526 28.566L57.1736 26.361C56.9543 25.997 56.6253 25.815 56.1866 25.815H55.4236V29.007H54.1706V21.909H55.4236V24.975H56.0956C56.4689 24.975 56.7606 24.8163 56.9706 24.499L58.4756 22.259ZM67.4997 21.909V29H66.2537V24.184C66.2537 24.0907 66.2584 23.9903 66.2677 23.883C66.277 23.7757 66.2887 23.6683 66.3027 23.561C66.2607 23.6543 66.2187 23.7407 66.1767 23.82C66.1347 23.8993 66.0904 23.9717 66.0437 24.037L62.6207 28.692C62.5694 28.7667 62.504 28.839 62.4247 28.909C62.35 28.9743 62.266 29.007 62.1727 29.007H61.4167V21.916H62.6697V26.732C62.6697 26.8207 62.665 26.9187 62.6557 27.026C62.6464 27.1287 62.6347 27.2337 62.6207 27.341C62.6627 27.2523 62.7047 27.1707 62.7467 27.096C62.7887 27.0167 62.8307 26.9443 62.8727 26.879L66.2957 22.224C66.347 22.1493 66.4124 22.0793 66.4917 22.014C66.571 21.944 66.6574 21.909 66.7507 21.909H67.4997ZM77.9375 28.09V22.889H75.6905C75.6438 23.617 75.5785 24.261 75.4945 24.821C75.4105 25.381 75.3125 25.8733 75.2005 26.298C75.0931 26.718 74.9718 27.075 74.8365 27.369C74.7058 27.663 74.5681 27.9033 74.4235 28.09H77.9375ZM80.4435 28.055V31.058C80.4435 31.1793 80.4085 31.2727 80.3385 31.338C80.2731 31.408 80.1868 31.443 80.0795 31.443H79.3165V29H73.3525V31.086C73.3525 31.1747 73.3245 31.2563 73.2685 31.331C73.2171 31.4057 73.1308 31.443 73.0095 31.443H72.2255V28.09H72.4565C72.6198 28.09 72.7808 28.062 72.9395 28.006C73.1028 27.95 73.2591 27.845 73.4085 27.691C73.5578 27.5323 73.6978 27.3107 73.8285 27.026C73.9638 26.7413 74.0851 26.3703 74.1925 25.913C74.2998 25.4557 74.3931 24.9003 74.4725 24.247C74.5518 23.589 74.6148 22.8097 74.6615 21.909H79.1485V28.055H80.4435ZM87.9218 29H86.6758V22.889H84.4358C84.3798 23.7897 84.2958 24.569 84.1838 25.227C84.0718 25.8803 83.9364 26.438 83.7778 26.9C83.6238 27.3573 83.4488 27.7307 83.2528 28.02C83.0614 28.3047 82.8584 28.5263 82.6438 28.685C82.4338 28.8437 82.2144 28.951 81.9858 29.007C81.7618 29.063 81.5378 29.091 81.3138 29.091C80.9171 29.091 80.7188 29.028 80.7188 28.902V28.111H81.0828C81.2414 28.111 81.4024 28.083 81.5658 28.027C81.7291 27.971 81.8878 27.8637 82.0418 27.705C82.2004 27.5463 82.3521 27.3247 82.4968 27.04C82.6414 26.7507 82.7721 26.3773 82.8888 25.92C83.0101 25.458 83.1128 24.9003 83.1968 24.247C83.2854 23.589 83.3531 22.8097 83.3998 21.909H87.9218V29ZM93.6262 25.22V22.749H92.4362C92.1702 22.749 91.9462 22.7887 91.7642 22.868C91.5822 22.9427 91.4352 23.0407 91.3232 23.162C91.2159 23.2787 91.1389 23.4117 91.0922 23.561C91.0455 23.7057 91.0222 23.8503 91.0222 23.995C91.0222 24.3777 91.1622 24.6787 91.4422 24.898C91.7222 25.1127 92.1049 25.22 92.5902 25.22H93.6262ZM94.8162 21.909V29H93.6262V26.011H93.0802C92.9495 26.011 92.8399 26.0227 92.7512 26.046C92.6672 26.0647 92.5925 26.0927 92.5272 26.13C92.4665 26.1673 92.4129 26.2163 92.3662 26.277C92.3195 26.333 92.2705 26.3983 92.2192 26.473L90.6652 28.566C90.5859 28.7153 90.4879 28.825 90.3712 28.895C90.2592 28.965 90.0935 29 89.8742 29H89.0062L91.0642 26.326C91.2322 26.046 91.4539 25.8593 91.7292 25.766C91.3699 25.7193 91.0665 25.6353 90.8192 25.514C90.5719 25.3927 90.3689 25.2503 90.2102 25.087C90.0562 24.919 89.9442 24.7347 89.8742 24.534C89.8042 24.3333 89.7692 24.1303 89.7692 23.925C89.7692 23.6823 89.8159 23.4397 89.9092 23.197C90.0072 22.9543 90.1612 22.7397 90.3712 22.553C90.5812 22.3617 90.8519 22.2077 91.1832 22.091C91.5192 21.9697 91.9252 21.909 92.4012 21.909H94.8162ZM106.29 29H105.037V22.861H101.635V29H100.382V21.909H106.29V29ZM111.259 21.797C111.777 21.797 112.244 21.8833 112.659 22.056C113.075 22.2287 113.429 22.4737 113.723 22.791C114.017 23.1083 114.241 23.4933 114.395 23.946C114.554 24.394 114.633 24.8957 114.633 25.451C114.633 26.011 114.554 26.515 114.395 26.963C114.241 27.411 114.017 27.7937 113.723 28.111C113.429 28.4283 113.075 28.6733 112.659 28.846C112.244 29.014 111.777 29.098 111.259 29.098C110.737 29.098 110.265 29.014 109.845 28.846C109.43 28.6733 109.075 28.4283 108.781 28.111C108.487 27.7937 108.261 27.411 108.102 26.963C107.948 26.515 107.871 26.011 107.871 25.451C107.871 24.8957 107.948 24.394 108.102 23.946C108.261 23.4933 108.487 23.1083 108.781 22.791C109.075 22.4737 109.43 22.2287 109.845 22.056C110.265 21.8833 110.737 21.797 111.259 21.797ZM111.259 28.125C111.959 28.125 112.482 27.8917 112.827 27.425C113.173 26.9537 113.345 26.298 113.345 25.458C113.345 24.6133 113.173 23.9553 112.827 23.484C112.482 23.0127 111.959 22.777 111.259 22.777C110.905 22.777 110.594 22.8377 110.328 22.959C110.067 23.0803 109.848 23.2553 109.67 23.484C109.498 23.7127 109.367 23.995 109.278 24.331C109.194 24.6623 109.152 25.038 109.152 25.458C109.152 26.298 109.325 26.9537 109.67 27.425C110.02 27.8917 110.55 28.125 111.259 28.125ZM121.149 23.169C121.111 23.2203 121.074 23.26 121.037 23.288C120.999 23.316 120.948 23.33 120.883 23.33C120.813 23.33 120.736 23.302 120.652 23.246C120.568 23.1853 120.463 23.12 120.337 23.05C120.215 22.98 120.064 22.917 119.882 22.861C119.704 22.8003 119.485 22.77 119.224 22.77C118.874 22.77 118.566 22.833 118.3 22.959C118.034 23.0803 117.81 23.2577 117.628 23.491C117.45 23.7243 117.315 24.0067 117.222 24.338C117.133 24.6693 117.089 25.0403 117.089 25.451C117.089 25.8803 117.138 26.263 117.236 26.599C117.334 26.9303 117.471 27.2103 117.649 27.439C117.831 27.663 118.048 27.8357 118.3 27.957C118.556 28.0737 118.843 28.132 119.161 28.132C119.464 28.132 119.714 28.097 119.91 28.027C120.106 27.9523 120.267 27.8707 120.393 27.782C120.523 27.6933 120.631 27.614 120.715 27.544C120.803 27.4693 120.89 27.432 120.974 27.432C121.076 27.432 121.156 27.4717 121.212 27.551L121.562 28.006C121.408 28.1973 121.233 28.3607 121.037 28.496C120.841 28.6313 120.628 28.7457 120.4 28.839C120.176 28.9277 119.94 28.993 119.693 29.035C119.445 29.077 119.193 29.098 118.937 29.098C118.493 29.098 118.08 29.0163 117.698 28.853C117.32 28.6897 116.991 28.454 116.711 28.146C116.431 27.8333 116.211 27.4507 116.053 26.998C115.894 26.5453 115.815 26.0297 115.815 25.451C115.815 24.9237 115.887 24.436 116.032 23.988C116.181 23.54 116.396 23.155 116.676 22.833C116.96 22.5063 117.308 22.252 117.719 22.07C118.134 21.888 118.61 21.797 119.147 21.797C119.646 21.797 120.085 21.8787 120.463 22.042C120.845 22.2007 121.184 22.427 121.478 22.721L121.149 23.169ZM128.793 22.861H126.07V29H124.824V22.861H122.101V21.909H128.793V22.861ZM133.756 25.808C133.182 25.8267 132.692 25.8733 132.286 25.948C131.884 26.018 131.555 26.1113 131.299 26.228C131.047 26.3447 130.862 26.4823 130.746 26.641C130.634 26.7997 130.578 26.977 130.578 27.173C130.578 27.3597 130.608 27.5207 130.669 27.656C130.729 27.7913 130.811 27.9033 130.914 27.992C131.021 28.076 131.145 28.139 131.285 28.181C131.429 28.2183 131.583 28.237 131.747 28.237C131.966 28.237 132.167 28.216 132.349 28.174C132.531 28.1273 132.701 28.062 132.86 27.978C133.023 27.894 133.177 27.7937 133.322 27.677C133.471 27.5603 133.616 27.4273 133.756 27.278V25.808ZM129.731 22.91C130.123 22.532 130.545 22.2497 130.998 22.063C131.45 21.8763 131.952 21.783 132.503 21.783C132.899 21.783 133.252 21.8483 133.56 21.979C133.868 22.1097 134.127 22.2917 134.337 22.525C134.547 22.7583 134.705 23.0407 134.813 23.372C134.92 23.7033 134.974 24.0673 134.974 24.464V29H134.421C134.299 29 134.206 28.9813 134.141 28.944C134.075 28.902 134.024 28.8227 133.987 28.706L133.847 28.034C133.66 28.2067 133.478 28.3607 133.301 28.496C133.123 28.6267 132.937 28.7387 132.741 28.832C132.545 28.9207 132.335 28.9883 132.111 29.035C131.891 29.0863 131.646 29.112 131.376 29.112C131.1 29.112 130.841 29.0747 130.599 29C130.356 28.9207 130.144 28.804 129.962 28.65C129.784 28.496 129.642 28.3023 129.535 28.069C129.432 27.831 129.381 27.551 129.381 27.229C129.381 26.949 129.458 26.6807 129.612 26.424C129.766 26.1627 130.015 25.9317 130.361 25.731C130.706 25.5303 131.156 25.367 131.712 25.241C132.267 25.1103 132.948 25.0357 133.756 25.017V24.464C133.756 23.9133 133.637 23.498 133.399 23.218C133.161 22.9333 132.813 22.791 132.356 22.791C132.048 22.791 131.789 22.8307 131.579 22.91C131.373 22.9847 131.194 23.071 131.04 23.169C130.89 23.2623 130.76 23.3487 130.648 23.428C130.54 23.5027 130.433 23.54 130.326 23.54C130.242 23.54 130.169 23.519 130.109 23.477C130.048 23.4303 129.997 23.3743 129.955 23.309L129.731 22.91ZM139.595 28.125C140.061 28.125 140.43 28.0177 140.701 27.803C140.971 27.5837 141.107 27.285 141.107 26.907C141.107 26.739 141.081 26.5873 141.03 26.452C140.978 26.312 140.894 26.1907 140.778 26.088C140.661 25.9853 140.505 25.906 140.309 25.85C140.117 25.794 139.882 25.766 139.602 25.766H138.069V28.125H139.595ZM138.069 22.749V24.975H139.434C139.639 24.975 139.828 24.947 140.001 24.891C140.178 24.8303 140.33 24.7487 140.456 24.646C140.582 24.5387 140.68 24.4127 140.75 24.268C140.82 24.1187 140.855 23.9553 140.855 23.778C140.855 23.6473 140.831 23.5213 140.785 23.4C140.738 23.274 140.659 23.1643 140.547 23.071C140.435 22.973 140.288 22.896 140.106 22.84C139.924 22.7793 139.7 22.749 139.434 22.749H138.069ZM139.469 21.909C139.907 21.909 140.283 21.9533 140.596 22.042C140.908 22.1307 141.165 22.252 141.366 22.406C141.566 22.5553 141.713 22.7327 141.807 22.938C141.9 23.1433 141.947 23.3627 141.947 23.596C141.947 23.75 141.926 23.911 141.884 24.079C141.842 24.247 141.767 24.408 141.66 24.562C141.557 24.716 141.415 24.856 141.233 24.982C141.055 25.1033 140.831 25.199 140.561 25.269C141.102 25.3623 141.52 25.5513 141.814 25.836C142.108 26.116 142.255 26.487 142.255 26.949C142.255 27.2943 142.185 27.5953 142.045 27.852C141.909 28.104 141.72 28.3163 141.478 28.489C141.24 28.6617 140.96 28.79 140.638 28.874C140.316 28.958 139.97 29 139.602 29H136.872V21.909H139.469ZM154.66 28.055V31.058C154.66 31.1793 154.625 31.2727 154.555 31.338C154.49 31.408 154.403 31.443 154.296 31.443H153.526V29H143.817V21.909H145.07V28.055H147.961V21.909H149.214V28.055H152.105V21.909H153.358V28.055H154.66ZM162 21.909V29H160.754V24.184C160.754 24.0907 160.758 23.9903 160.768 23.883C160.777 23.7757 160.789 23.6683 160.803 23.561C160.761 23.6543 160.719 23.7407 160.677 23.82C160.635 23.8993 160.59 23.9717 160.544 24.037L157.121 28.692C157.069 28.7667 157.004 28.839 156.925 28.909C156.85 28.9743 156.766 29.007 156.673 29.007H155.917V21.916H157.17V26.732C157.17 26.8207 157.165 26.9187 157.156 27.026C157.146 27.1287 157.135 27.2337 157.121 27.341C157.163 27.2523 157.205 27.1707 157.247 27.096C157.289 27.0167 157.331 26.9443 157.373 26.879L160.796 22.224C160.847 22.1493 160.912 22.0793 160.992 22.014C161.071 21.944 161.157 21.909 161.251 21.909H162ZM168.274 22.259C168.34 22.1563 168.426 22.0723 168.533 22.007C168.641 21.9417 168.755 21.909 168.876 21.909H169.849L168.008 24.611C167.896 24.7837 167.78 24.926 167.658 25.038C167.537 25.1453 167.388 25.2293 167.21 25.29C167.434 25.3507 167.623 25.4463 167.777 25.577C167.931 25.703 168.069 25.8663 168.19 26.067L170.052 29H169.184C168.96 29 168.788 28.9627 168.666 28.888C168.545 28.8133 168.44 28.706 168.351 28.566L166.972 26.361C166.753 25.997 166.424 25.815 165.985 25.815H165.222V29.007H163.969V21.909H165.222V24.975H165.894C166.268 24.975 166.559 24.8163 166.769 24.499L168.274 22.259ZM173.931 21.797C174.449 21.797 174.916 21.8833 175.331 22.056C175.746 22.2287 176.101 22.4737 176.395 22.791C176.689 23.1083 176.913 23.4933 177.067 23.946C177.226 24.394 177.305 24.8957 177.305 25.451C177.305 26.011 177.226 26.515 177.067 26.963C176.913 27.411 176.689 27.7937 176.395 28.111C176.101 28.4283 175.746 28.6733 175.331 28.846C174.916 29.014 174.449 29.098 173.931 29.098C173.408 29.098 172.937 29.014 172.517 28.846C172.102 28.6733 171.747 28.4283 171.453 28.111C171.159 27.7937 170.933 27.411 170.774 26.963C170.62 26.515 170.543 26.011 170.543 25.451C170.543 24.8957 170.62 24.394 170.774 23.946C170.933 23.4933 171.159 23.1083 171.453 22.791C171.747 22.4737 172.102 22.2287 172.517 22.056C172.937 21.8833 173.408 21.797 173.931 21.797ZM173.931 28.125C174.631 28.125 175.154 27.8917 175.499 27.425C175.844 26.9537 176.017 26.298 176.017 25.458C176.017 24.6133 175.844 23.9553 175.499 23.484C175.154 23.0127 174.631 22.777 173.931 22.777C173.576 22.777 173.266 22.8377 173 22.959C172.739 23.0803 172.519 23.2553 172.342 23.484C172.169 23.7127 172.039 23.995 171.95 24.331C171.866 24.6623 171.824 25.038 171.824 25.458C171.824 26.298 171.997 26.9537 172.342 27.425C172.692 27.8917 173.222 28.125 173.931 28.125ZM181.608 28.125C182.075 28.125 182.444 28.0177 182.714 27.803C182.985 27.5837 183.12 27.285 183.12 26.907C183.12 26.739 183.095 26.5873 183.043 26.452C182.992 26.312 182.908 26.1907 182.791 26.088C182.675 25.9853 182.518 25.906 182.322 25.85C182.131 25.794 181.895 25.766 181.615 25.766H180.082V28.125H181.608ZM180.082 22.749V24.975H181.447C181.653 24.975 181.842 24.947 182.014 24.891C182.192 24.8303 182.343 24.7487 182.469 24.646C182.595 24.5387 182.693 24.4127 182.763 24.268C182.833 24.1187 182.868 23.9553 182.868 23.778C182.868 23.6473 182.845 23.5213 182.798 23.4C182.752 23.274 182.672 23.1643 182.56 23.071C182.448 22.973 182.301 22.896 182.119 22.84C181.937 22.7793 181.713 22.749 181.447 22.749H180.082ZM181.482 21.909C181.921 21.909 182.297 21.9533 182.609 22.042C182.922 22.1307 183.179 22.252 183.379 22.406C183.58 22.5553 183.727 22.7327 183.82 22.938C183.914 23.1433 183.96 23.3627 183.96 23.596C183.96 23.75 183.939 23.911 183.897 24.079C183.855 24.247 183.781 24.408 183.673 24.562C183.571 24.716 183.428 24.856 183.246 24.982C183.069 25.1033 182.845 25.199 182.574 25.269C183.116 25.3623 183.533 25.5513 183.827 25.836C184.121 26.116 184.268 26.487 184.268 26.949C184.268 27.2943 184.198 27.5953 184.058 27.852C183.923 28.104 183.734 28.3163 183.491 28.489C183.253 28.6617 182.973 28.79 182.651 28.874C182.329 28.958 181.984 29 181.615 29H178.885V21.909H181.482ZM6.895 39.909V47H5.642V43.682H2.24V47H0.987V39.909H2.24V42.737H5.642V39.909H6.895ZM12.7187 43.808C12.1447 43.8267 11.6547 43.8733 11.2487 43.948C10.8473 44.018 10.5183 44.1113 10.2617 44.228C10.0097 44.3447 9.82534 44.4823 9.70867 44.641C9.59667 44.7997 9.54067 44.977 9.54067 45.173C9.54067 45.3597 9.57101 45.5207 9.63167 45.656C9.69234 45.7913 9.77401 45.9033 9.87667 45.992C9.98401 46.076 10.1077 46.139 10.2477 46.181C10.3923 46.2183 10.5463 46.237 10.7097 46.237C10.929 46.237 11.1297 46.216 11.3117 46.174C11.4937 46.1273 11.664 46.062 11.8227 45.978C11.986 45.894 12.14 45.7937 12.2847 45.677C12.434 45.5603 12.5787 45.4273 12.7187 45.278V43.808ZM8.69367 40.91C9.08567 40.532 9.50801 40.2497 9.96067 40.063C10.4133 39.8763 10.915 39.783 11.4657 39.783C11.8623 39.783 12.2147 39.8483 12.5227 39.979C12.8307 40.1097 13.0897 40.2917 13.2997 40.525C13.5097 40.7583 13.6683 41.0407 13.7757 41.372C13.883 41.7033 13.9367 42.0673 13.9367 42.464V47H13.3837C13.2623 47 13.169 46.9813 13.1037 46.944C13.0383 46.902 12.987 46.8227 12.9497 46.706L12.8097 46.034C12.623 46.2067 12.441 46.3607 12.2637 46.496C12.0863 46.6267 11.8997 46.7387 11.7037 46.832C11.5077 46.9207 11.2977 46.9883 11.0737 47.035C10.8543 47.0863 10.6093 47.112 10.3387 47.112C10.0633 47.112 9.80434 47.0747 9.56167 47C9.31901 46.9207 9.10667 46.804 8.92467 46.65C8.74734 46.496 8.60501 46.3023 8.49767 46.069C8.39501 45.831 8.34367 45.551 8.34367 45.229C8.34367 44.949 8.42067 44.6807 8.57467 44.424C8.72867 44.1627 8.97834 43.9317 9.32367 43.731C9.66901 43.5303 10.1193 43.367 10.6747 43.241C11.23 43.1103 11.9113 43.0357 12.7187 43.017V42.464C12.7187 41.9133 12.5997 41.498 12.3617 41.218C12.1237 40.9333 11.776 40.791 11.3187 40.791C11.0107 40.791 10.7517 40.8307 10.5417 40.91C10.3363 40.9847 10.1567 41.071 10.0027 41.169C9.85334 41.2623 9.72267 41.3487 9.61067 41.428C9.50334 41.5027 9.39601 41.54 9.28867 41.54C9.20467 41.54 9.13234 41.519 9.07167 41.477C9.01101 41.4303 8.95967 41.3743 8.91767 41.309L8.69367 40.91ZM27.3197 39.888V47H26.1927V42.289C26.1927 42.1583 26.1997 42.0137 26.2137 41.855C26.2324 41.6917 26.2557 41.54 26.2837 41.4L23.8197 45.719C23.7824 45.789 23.7334 45.845 23.6727 45.887C23.612 45.929 23.542 45.95 23.4627 45.95H23.3227C23.2434 45.95 23.171 45.929 23.1057 45.887C23.045 45.845 22.996 45.789 22.9587 45.719L20.4527 41.386C20.476 41.526 20.497 41.68 20.5157 41.848C20.5344 42.0113 20.5437 42.1583 20.5437 42.289V47H19.4167V39.888H20.4177C20.5064 39.888 20.5927 39.909 20.6767 39.951C20.7607 39.9883 20.833 40.0607 20.8937 40.168L23.1057 43.864C23.213 44.0787 23.3087 44.305 23.3927 44.543C23.472 44.2957 23.5654 44.0693 23.6727 43.864L25.8427 40.168C25.9034 40.056 25.9757 39.9813 26.0597 39.944C26.1437 39.9067 26.23 39.888 26.3187 39.888H27.3197ZM33.1308 43.808C32.5568 43.8267 32.0668 43.8733 31.6608 43.948C31.2594 44.018 30.9304 44.1113 30.6738 44.228C30.4218 44.3447 30.2374 44.4823 30.1208 44.641C30.0088 44.7997 29.9528 44.977 29.9528 45.173C29.9528 45.3597 29.9831 45.5207 30.0438 45.656C30.1044 45.7913 30.1861 45.9033 30.2888 45.992C30.3961 46.076 30.5198 46.139 30.6598 46.181C30.8044 46.2183 30.9584 46.237 31.1218 46.237C31.3411 46.237 31.5418 46.216 31.7238 46.174C31.9058 46.1273 32.0761 46.062 32.2348 45.978C32.3981 45.894 32.5521 45.7937 32.6968 45.677C32.8461 45.5603 32.9908 45.4273 33.1308 45.278V43.808ZM29.1058 40.91C29.4978 40.532 29.9201 40.2497 30.3728 40.063C30.8254 39.8763 31.3271 39.783 31.8778 39.783C32.2744 39.783 32.6268 39.8483 32.9348 39.979C33.2428 40.1097 33.5018 40.2917 33.7118 40.525C33.9218 40.7583 34.0804 41.0407 34.1878 41.372C34.2951 41.7033 34.3488 42.0673 34.3488 42.464V47H33.7958C33.6744 47 33.5811 46.9813 33.5158 46.944C33.4504 46.902 33.3991 46.8227 33.3618 46.706L33.2218 46.034C33.0351 46.2067 32.8531 46.3607 32.6758 46.496C32.4984 46.6267 32.3118 46.7387 32.1158 46.832C31.9198 46.9207 31.7098 46.9883 31.4858 47.035C31.2664 47.0863 31.0214 47.112 30.7508 47.112C30.4754 47.112 30.2164 47.0747 29.9738 47C29.7311 46.9207 29.5188 46.804 29.3368 46.65C29.1594 46.496 29.0171 46.3023 28.9098 46.069C28.8071 45.831 28.7558 45.551 28.7558 45.229C28.7558 44.949 28.8328 44.6807 28.9868 44.424C29.1408 44.1627 29.3904 43.9317 29.7358 43.731C30.0811 43.5303 30.5314 43.367 31.0868 43.241C31.6421 43.1103 32.3234 43.0357 33.1308 43.017V42.464C33.1308 41.9133 33.0118 41.498 32.7738 41.218C32.5358 40.9333 32.1881 40.791 31.7308 40.791C31.4228 40.791 31.1638 40.8307 30.9538 40.91C30.7484 40.9847 30.5688 41.071 30.4148 41.169C30.2654 41.2623 30.1348 41.3487 30.0228 41.428C29.9154 41.5027 29.8081 41.54 29.7008 41.54C29.6168 41.54 29.5444 41.519 29.4838 41.477C29.4231 41.4303 29.3718 41.3743 29.3298 41.309L29.1058 40.91ZM37.4998 45.292C37.7284 45.6 37.9781 45.817 38.2488 45.943C38.5194 46.069 38.8228 46.132 39.1588 46.132C39.8214 46.132 40.3301 45.8963 40.6848 45.425C41.0394 44.9537 41.2168 44.2817 41.2168 43.409C41.2168 42.947 41.1748 42.5503 41.0908 42.219C41.0114 41.8877 40.8948 41.617 40.7408 41.407C40.5868 41.1923 40.3978 41.036 40.1738 40.938C39.9498 40.84 39.6954 40.791 39.4108 40.791C39.0048 40.791 38.6478 40.8843 38.3398 41.071C38.0364 41.2577 37.7564 41.5213 37.4998 41.862V45.292ZM37.4368 41.008C37.7354 40.6393 38.0808 40.343 38.4728 40.119C38.8648 39.895 39.3128 39.783 39.8168 39.783C40.2274 39.783 40.5984 39.8623 40.9298 40.021C41.2611 40.175 41.5434 40.406 41.7768 40.714C42.0101 41.0173 42.1898 41.3953 42.3158 41.848C42.4418 42.3007 42.5048 42.821 42.5048 43.409C42.5048 43.9317 42.4348 44.4193 42.2948 44.872C42.1548 45.32 41.9518 45.7097 41.6858 46.041C41.4244 46.3677 41.1024 46.6267 40.7198 46.818C40.3418 47.0047 39.9148 47.098 39.4388 47.098C39.0048 47.098 38.6314 47.0257 38.3188 46.881C38.0108 46.7317 37.7378 46.5263 37.4998 46.265V49.401H36.2468V39.909H36.9958C37.1731 39.909 37.2828 39.9953 37.3248 40.168L37.4368 41.008ZM48.3858 40.259C48.4511 40.1563 48.5374 40.0723 48.6448 40.007C48.7521 39.9417 48.8664 39.909 48.9878 39.909H49.9608L48.1198 42.611C48.0078 42.7837 47.8911 42.926 47.7698 43.038C47.6484 43.1453 47.4991 43.2293 47.3218 43.29C47.5458 43.3507 47.7348 43.4463 47.8888 43.577C48.0428 43.703 48.1804 43.8663 48.3018 44.067L50.1637 47H49.2958C49.0718 47 48.8991 46.9627 48.7778 46.888C48.6564 46.8133 48.5514 46.706 48.4628 46.566L47.0838 44.361C46.8644 43.997 46.5354 43.815 46.0968 43.815H45.3338V47.007H44.0808V39.909H45.3338V42.975H46.0058C46.3791 42.975 46.6708 42.8163 46.8808 42.499L48.3858 40.259ZM55.7994 42.681C55.7994 42.3917 55.7574 42.128 55.6734 41.89C55.5941 41.6473 55.4751 41.4397 55.3164 41.267C55.1624 41.0897 54.9734 40.9543 54.7494 40.861C54.5254 40.763 54.2711 40.714 53.9864 40.714C53.3891 40.714 52.9154 40.889 52.5654 41.239C52.2201 41.5843 52.0054 42.065 51.9214 42.681H55.7994ZM56.8074 46.006C56.6534 46.1927 56.4691 46.356 56.2544 46.496C56.0397 46.6313 55.8087 46.7433 55.5614 46.832C55.3187 46.9207 55.0667 46.986 54.8054 47.028C54.5441 47.0747 54.2851 47.098 54.0284 47.098C53.5384 47.098 53.0857 47.0163 52.6704 46.853C52.2597 46.685 51.9027 46.4423 51.5994 46.125C51.3007 45.803 51.0674 45.4063 50.8994 44.935C50.7314 44.4637 50.6474 43.9223 50.6474 43.311C50.6474 42.8163 50.7221 42.3543 50.8714 41.925C51.0254 41.4957 51.2447 41.1247 51.5294 40.812C51.8141 40.4947 52.1617 40.2473 52.5724 40.07C52.9831 39.888 53.4451 39.797 53.9584 39.797C54.3831 39.797 54.7751 39.8693 55.1344 40.014C55.4984 40.154 55.8111 40.3593 56.0724 40.63C56.3384 40.896 56.5461 41.2273 56.6954 41.624C56.8447 42.016 56.9194 42.464 56.9194 42.968C56.9194 43.164 56.8984 43.2947 56.8564 43.36C56.8144 43.4253 56.7351 43.458 56.6184 43.458H51.8794C51.8934 43.906 51.9541 44.2957 52.0614 44.627C52.1734 44.9583 52.3274 45.236 52.5234 45.46C52.7194 45.6793 52.9527 45.845 53.2234 45.957C53.4941 46.0643 53.7974 46.118 54.1334 46.118C54.4461 46.118 54.7144 46.083 54.9384 46.013C55.1671 45.9383 55.3631 45.859 55.5264 45.775C55.6897 45.691 55.8251 45.614 55.9324 45.544C56.0444 45.4693 56.1401 45.432 56.2194 45.432C56.3221 45.432 56.4014 45.4717 56.4574 45.551L56.8074 46.006ZM64.2345 40.861H61.5115V47H60.2655V40.861H57.5425V39.909H64.2345V40.861ZM71.3305 47H70.0775V40.861H66.6755V47H65.4225V39.909H71.3305V47ZM79.5272 47H78.2812V40.889H76.0412C75.9852 41.7897 75.9012 42.569 75.7892 43.227C75.6772 43.8803 75.5419 44.438 75.3832 44.9C75.2292 45.3573 75.0542 45.7307 74.8582 46.02C74.6669 46.3047 74.4639 46.5263 74.2492 46.685C74.0392 46.8437 73.8199 46.951 73.5912 47.007C73.3672 47.063 73.1432 47.091 72.9192 47.091C72.5226 47.091 72.3242 47.028 72.3242 46.902V46.111H72.6882C72.8469 46.111 73.0079 46.083 73.1712 46.027C73.3346 45.971 73.4932 45.8637 73.6472 45.705C73.8059 45.5463 73.9576 45.3247 74.1022 45.04C74.2469 44.7507 74.3776 44.3773 74.4942 43.92C74.6156 43.458 74.7182 42.9003 74.8022 42.247C74.8909 41.589 74.9586 40.8097 75.0052 39.909H79.5272V47ZM86.2467 42.681C86.2467 42.3917 86.2047 42.128 86.1207 41.89C86.0413 41.6473 85.9223 41.4397 85.7637 41.267C85.6097 41.0897 85.4207 40.9543 85.1967 40.861C84.9727 40.763 84.7183 40.714 84.4337 40.714C83.8363 40.714 83.3627 40.889 83.0127 41.239C82.6673 41.5843 82.4527 42.065 82.3687 42.681H86.2467ZM87.2547 46.006C87.1007 46.1927 86.9163 46.356 86.7017 46.496C86.487 46.6313 86.256 46.7433 86.0087 46.832C85.766 46.9207 85.514 46.986 85.2527 47.028C84.9913 47.0747 84.7323 47.098 84.4757 47.098C83.9857 47.098 83.533 47.0163 83.1177 46.853C82.707 46.685 82.35 46.4423 82.0467 46.125C81.748 45.803 81.5147 45.4063 81.3467 44.935C81.1787 44.4637 81.0947 43.9223 81.0947 43.311C81.0947 42.8163 81.1693 42.3543 81.3187 41.925C81.4727 41.4957 81.692 41.1247 81.9767 40.812C82.2613 40.4947 82.609 40.2473 83.0197 40.07C83.4303 39.888 83.8923 39.797 84.4057 39.797C84.8303 39.797 85.2223 39.8693 85.5817 40.014C85.9457 40.154 86.2583 40.3593 86.5197 40.63C86.7857 40.896 86.9933 41.2273 87.1427 41.624C87.292 42.016 87.3667 42.464 87.3667 42.968C87.3667 43.164 87.3457 43.2947 87.3037 43.36C87.2617 43.4253 87.1823 43.458 87.0657 43.458H82.3267C82.3407 43.906 82.4013 44.2957 82.5087 44.627C82.6207 44.9583 82.7747 45.236 82.9707 45.46C83.1667 45.6793 83.4 45.845 83.6707 45.957C83.9413 46.0643 84.2447 46.118 84.5807 46.118C84.8933 46.118 85.1617 46.083 85.3857 46.013C85.6143 45.9383 85.8103 45.859 85.9737 45.775C86.137 45.691 86.2723 45.614 86.3797 45.544C86.4917 45.4693 86.5873 45.432 86.6667 45.432C86.7693 45.432 86.8487 45.4717 86.9047 45.551L87.2547 46.006ZM94.9802 39.909V47H93.7342V42.184C93.7342 42.0907 93.7388 41.9903 93.7482 41.883C93.7575 41.7757 93.7692 41.6683 93.7832 41.561C93.7412 41.6543 93.6992 41.7407 93.6572 41.82C93.6152 41.8993 93.5708 41.9717 93.5242 42.037L90.1012 46.692C90.0498 46.7667 89.9845 46.839 89.9052 46.909C89.8305 46.9743 89.7465 47.007 89.6532 47.007H88.8972V39.916H90.1502V44.732C90.1502 44.8207 90.1455 44.9187 90.1362 45.026C90.1268 45.1287 90.1152 45.2337 90.1012 45.341C90.1432 45.2523 90.1852 45.1707 90.2272 45.096C90.2692 45.0167 90.3112 44.9443 90.3532 44.879L93.7762 40.224C93.8275 40.1493 93.8928 40.0793 93.9722 40.014C94.0515 39.944 94.1378 39.909 94.2312 39.909H94.9802ZM92.0192 38.194C92.2105 38.194 92.3715 38.173 92.5022 38.131C92.6328 38.0843 92.7378 38.012 92.8172 37.914C92.9012 37.816 92.9618 37.69 92.9992 37.536C93.0365 37.382 93.0552 37.193 93.0552 36.969H93.7832C93.8718 36.969 93.9395 37.0087 93.9862 37.088C94.0328 37.1673 94.0562 37.2537 94.0562 37.347C94.0562 37.5803 94.0095 37.7903 93.9162 37.977C93.8228 38.1637 93.6875 38.3247 93.5102 38.46C93.3375 38.5907 93.1252 38.691 92.8732 38.761C92.6212 38.831 92.3365 38.866 92.0192 38.866C91.7018 38.866 91.4172 38.831 91.1652 38.761C90.9132 38.691 90.6985 38.5907 90.5212 38.46C90.3485 38.3247 90.2155 38.1637 90.1222 37.977C90.0288 37.7903 89.9822 37.5803 89.9822 37.347C89.9822 37.2537 90.0055 37.1673 90.0522 37.088C90.0988 37.0087 90.1665 36.969 90.2552 36.969H90.9832C90.9832 37.193 91.0018 37.382 91.0392 37.536C91.0765 37.69 91.1348 37.816 91.2142 37.914C91.2982 38.012 91.4055 38.0843 91.5362 38.131C91.6668 38.173 91.8278 38.194 92.0192 38.194ZM101.885 41.169C101.848 41.2203 101.81 41.26 101.773 41.288C101.736 41.316 101.684 41.33 101.619 41.33C101.549 41.33 101.472 41.302 101.388 41.246C101.304 41.1853 101.199 41.12 101.073 41.05C100.952 40.98 100.8 40.917 100.618 40.861C100.441 40.8003 100.221 40.77 99.9599 40.77C99.6099 40.77 99.3019 40.833 99.0359 40.959C98.7699 41.0803 98.5459 41.2577 98.3639 41.491C98.1866 41.7243 98.0512 42.0067 97.9579 42.338C97.8692 42.6693 97.8249 43.0403 97.8249 43.451C97.8249 43.8803 97.8739 44.263 97.9719 44.599C98.0699 44.9303 98.2076 45.2103 98.3849 45.439C98.5669 45.663 98.7839 45.8357 99.0359 45.957C99.2926 46.0737 99.5796 46.132 99.8969 46.132C100.2 46.132 100.45 46.097 100.646 46.027C100.842 45.9523 101.003 45.8707 101.129 45.782C101.26 45.6933 101.367 45.614 101.451 45.544C101.54 45.4693 101.626 45.432 101.71 45.432C101.813 45.432 101.892 45.4717 101.948 45.551L102.298 46.006C102.144 46.1973 101.969 46.3607 101.773 46.496C101.577 46.6313 101.365 46.7457 101.136 46.839C100.912 46.9277 100.676 46.993 100.429 47.035C100.182 47.077 99.9296 47.098 99.6729 47.098C99.2296 47.098 98.8166 47.0163 98.4339 46.853C98.0559 46.6897 97.7269 46.454 97.4469 46.146C97.1669 45.8333 96.9476 45.4507 96.7889 44.998C96.6302 44.5453 96.5509 44.0297 96.5509 43.451C96.5509 42.9237 96.6232 42.436 96.7679 41.988C96.9172 41.54 97.1319 41.155 97.4119 40.833C97.6966 40.5063 98.0442 40.252 98.4549 40.07C98.8702 39.888 99.3462 39.797 99.8829 39.797C100.382 39.797 100.821 39.8787 101.199 40.042C101.582 40.2007 101.92 40.427 102.214 40.721L101.885 41.169ZM106.358 46.09C106.61 46.09 106.827 46.0597 107.009 45.999C107.196 45.9337 107.35 45.845 107.471 45.733C107.593 45.6163 107.684 45.481 107.744 45.327C107.805 45.173 107.835 45.005 107.835 44.823C107.835 44.655 107.81 44.4987 107.758 44.354C107.707 44.2047 107.621 44.074 107.499 43.962C107.383 43.85 107.229 43.7613 107.037 43.696C106.846 43.6307 106.613 43.598 106.337 43.598H104.825V46.09H106.358ZM106.337 42.688C106.827 42.688 107.238 42.7463 107.569 42.863C107.905 42.9797 108.174 43.136 108.374 43.332C108.58 43.528 108.727 43.7543 108.815 44.011C108.904 44.2677 108.948 44.5337 108.948 44.809C108.948 45.1263 108.892 45.4203 108.78 45.691C108.668 45.957 108.503 46.188 108.283 46.384C108.064 46.5753 107.793 46.727 107.471 46.839C107.149 46.9463 106.778 47 106.358 47H103.635V39.909H104.825V42.688H106.337ZM111.755 39.909V47H110.509V39.909H111.755Z" fill="#331A2F" fill-opacity="0.9"/>
</svg>
