<svg width="241" height="58" viewBox="0 0 241 58" fill="none" xmlns="http://www.w3.org/2000/svg">
<path d="M85.1934 37.2458C84.4285 37.2458 83.5469 37.1289 82.5483 36.8952L79.3934 36.0348L80.2539 33.4535C82.0385 34.0909 83.5256 34.4096 84.7154 34.4096C85.3527 34.4096 85.8838 34.2608 86.3087 33.9634C86.7336 33.666 86.9461 33.2623 86.9461 32.7524C86.9461 32.2426 86.808 31.8601 86.5318 31.6052C86.2556 31.3503 85.7457 31.1272 85.0022 30.936L83.2813 30.4898C80.9018 29.8737 79.7121 28.4715 79.7121 26.2833C79.7121 24.9661 80.2114 23.8826 81.2099 23.0328C82.2297 22.183 83.5575 21.7581 85.1934 21.7581C85.852 21.7581 86.6274 21.8749 87.5197 22.1086L90.6746 22.969L89.8142 25.5503C88.0933 24.913 86.7868 24.5943 85.8945 24.5943C85.2996 24.5943 84.8003 24.7536 84.3967 25.0723C83.993 25.3697 83.7912 25.7628 83.7912 26.2514C83.7912 26.7613 83.9293 27.1437 84.2055 27.3987C84.4817 27.6536 84.9915 27.8767 85.7351 28.0679L87.4241 28.514C88.6988 28.8539 89.6124 29.3745 90.1647 30.0755C90.7171 30.7554 90.9933 31.6371 90.9933 32.7206C90.9933 34.0165 90.5047 35.1 89.5274 35.9711C88.5501 36.8209 87.1054 37.2458 85.1934 37.2458ZM98.8228 37.2458C97.2294 37.2458 96.1034 36.8528 95.4448 36.0667C94.8075 35.2806 94.4888 34.0803 94.4888 32.4656V24.8492H92.1306V22.0449H94.4888V18.3163L98.536 17.5196V22.0449H102.041V24.8492H98.536V32.5294C98.536 33.7828 99.0459 34.4096 100.066 34.4096C100.682 34.4096 101.34 34.2184 102.041 33.8359L102.679 36.226C101.51 36.9059 100.225 37.2458 98.8228 37.2458ZM108.746 37.2458C107.301 37.2458 106.154 36.7996 105.304 35.9073C104.454 35.0151 104.029 33.9528 104.029 32.7206C104.029 31.807 104.327 31.0741 104.922 30.5217C105.538 29.9481 106.494 29.5019 107.79 29.1832L112.92 27.9085V26.602C112.92 25.9858 112.729 25.4972 112.347 25.136C111.986 24.7749 111.476 24.5943 110.817 24.5943C110.073 24.5943 108.395 25.1573 105.782 26.2833L104.667 23.702L108.299 22.3635C109.404 21.9599 110.212 21.7581 110.721 21.7581C112.655 21.7581 114.174 22.2679 115.279 23.2877C116.405 24.2862 116.968 25.6034 116.968 27.2393V32.7206C116.968 33.1242 117.031 33.7297 117.159 34.537C117.307 35.3231 117.499 35.9923 117.732 36.5447L114.259 37.2458C113.834 36.7784 113.388 36.1304 112.92 35.3019C111.497 36.5978 110.105 37.2458 108.746 37.2458ZM110.18 34.4096C111.008 34.4096 111.922 33.9315 112.92 32.9755V29.7569L109.734 30.681C108.714 30.9785 108.204 31.5415 108.204 32.37C108.204 33.0074 108.384 33.5066 108.746 33.8678C109.107 34.229 109.585 34.4096 110.18 34.4096ZM125.385 37.2458C123.792 37.2458 122.666 36.8528 122.007 36.0667C121.37 35.2806 121.051 34.0803 121.051 32.4656V24.8492H118.693V22.0449H121.051V18.3163L125.098 17.5196V22.0449H128.604V24.8492H125.098V32.5294C125.098 33.7828 125.608 34.4096 126.628 34.4096C127.244 34.4096 127.903 34.2184 128.604 33.8359L129.241 36.226C128.073 36.9059 126.787 37.2458 125.385 37.2458ZM170.394 36.959H166.347V28.2591C166.347 26.9844 166.156 26.0602 165.773 25.4866C165.412 24.8917 164.828 24.5943 164.021 24.5943C163.213 24.5943 162.342 25.0723 161.407 26.0283V36.959H157.36V28.2591C157.36 26.9844 157.18 26.0602 156.818 25.4866C156.457 24.8917 155.862 24.5943 155.034 24.5943C154.248 24.5943 153.377 25.0723 152.421 26.0283V36.959H148.373V26.2833C148.373 25.8796 148.299 25.2848 148.15 24.4987C148.023 23.6914 147.842 23.0115 147.609 22.4591L151.05 21.7581C151.496 22.2042 151.953 22.8522 152.421 23.702C153.759 22.406 155.151 21.7581 156.595 21.7581C158.741 21.7581 160.196 22.5123 160.961 24.0207C161.429 23.4046 162.098 22.8734 162.969 22.4273C163.84 21.9811 164.711 21.7581 165.582 21.7581C167.197 21.7581 168.397 22.2255 169.183 23.1602C169.99 24.095 170.394 25.5503 170.394 27.5261V36.959ZM177.742 37.2458C176.297 37.2458 175.15 36.7996 174.3 35.9073C173.45 35.0151 173.025 33.9528 173.025 32.7206C173.025 31.807 173.323 31.0741 173.918 30.5217C174.534 29.9481 175.49 29.5019 176.786 29.1832L181.917 27.9085V26.602C181.917 25.9858 181.725 25.4972 181.343 25.136C180.982 24.7749 180.472 24.5943 179.813 24.5943C179.07 24.5943 177.391 25.1573 174.778 26.2833L173.663 23.702L177.296 22.3635C178.4 21.9599 179.208 21.7581 179.718 21.7581C181.651 21.7581 183.17 22.2679 184.275 23.2877C185.401 24.2862 185.964 25.6034 185.964 27.2393V32.7206C185.964 33.1242 186.027 33.7297 186.155 34.537C186.304 35.3231 186.495 35.9923 186.729 36.5447L183.255 37.2458C182.83 36.7784 182.384 36.1304 181.917 35.3019C180.493 36.5978 179.102 37.2458 177.742 37.2458ZM179.176 34.4096C180.004 34.4096 180.918 33.9315 181.917 32.9755V29.7569L178.73 30.681C177.71 30.9785 177.2 31.5415 177.2 32.37C177.2 33.0074 177.381 33.5066 177.742 33.8678C178.103 34.229 178.581 34.4096 179.176 34.4096ZM193.641 36.959H189.594V26.2833C189.594 25.8796 189.519 25.2848 189.371 24.4987C189.243 23.6914 189.063 23.0115 188.829 22.4591L192.271 21.7581C192.929 22.4167 193.386 23.309 193.641 24.435C194.066 23.5851 194.629 22.9265 195.33 22.4591C196.052 21.9918 196.828 21.7581 197.656 21.7581C198.124 21.7581 198.549 21.8324 198.931 21.9811L198.23 25.4547H197.178C196.18 25.4547 195.394 25.699 194.82 26.1877C194.268 26.6551 193.875 27.4411 193.641 28.5459V36.959ZM214.686 36.959H209.714L204.775 29.247V36.959H200.727V15.6713L204.775 14.8746V28.1316L209.81 22.0449H214.367L208.376 28.7052L214.686 36.959ZM221.94 37.2458C219.539 37.2458 217.723 36.5341 216.49 35.1107C215.279 33.666 214.674 31.7752 214.674 29.4382C214.674 27.1012 215.301 25.2423 216.554 23.8613C217.808 22.4591 219.55 21.7581 221.78 21.7581C226.093 21.7581 228.25 23.9994 228.25 28.4822C228.25 28.9496 228.196 29.3426 228.09 29.6613H218.849C218.849 31.2547 219.135 32.4444 219.709 33.2305C220.304 34.0165 221.122 34.4096 222.163 34.4096C223.331 34.4096 224.861 33.9847 226.752 33.1349L227.867 35.7161L224.489 36.959C223.915 37.1502 223.066 37.2458 221.94 37.2458ZM221.557 24.5943C220.707 24.5943 220.038 24.8917 219.55 25.4866C219.082 26.0815 218.849 26.825 218.849 27.7173H224.043C224.043 25.6353 223.214 24.5943 221.557 24.5943ZM236.185 37.2458C234.592 37.2458 233.466 36.8528 232.807 36.0667C232.17 35.2806 231.851 34.0803 231.851 32.4656V24.8492H229.493V22.0449H231.851V18.3163L235.899 17.5196V22.0449H239.404V24.8492H235.899V32.5294C235.899 33.7828 236.408 34.4096 237.428 34.4096C238.044 34.4096 238.703 34.2184 239.404 33.8359L240.041 36.226C238.873 36.9059 237.588 37.2458 236.185 37.2458Z" fill="#54618E"/>
<path d="M143.753 36.959H139.897V32.0513H131.197L130.337 29.5657L139.419 16.5636H143.753V29.0558H145.792V32.0513H143.753V36.959ZM139.897 29.0558V20.7702L134.256 29.0558H139.897Z" fill="#D653D2"/>
<mask id="mask0_1457_20129" style="mask-type:alpha" maskUnits="userSpaceOnUse" x="0" y="0" width="60" height="58">
<ellipse cx="30" cy="29" rx="30" ry="29" fill="url(#paint0_linear_1457_20129)"/>
</mask>
<g mask="url(#mask0_1457_20129)">
<ellipse cx="30" cy="29" rx="30" ry="29" fill="url(#paint1_linear_1457_20129)"/>
<path d="M39.539 37.0481V4.81461C39.539 4.32161 39.554 3.78511 39.584 3.20511C39.644 2.62511 39.704 2.03061 39.764 1.42161L12.224 37.0481H39.539ZM65.0317 37.0481V39.3101C65.0317 39.6291 64.9267 39.8901 64.7167 40.0931C64.5367 40.2671 64.2367 40.3541 63.8167 40.3541H43.319V58.0151H39.539V40.3541H9.43402C8.98402 40.3541 8.63902 40.2671 8.39902 40.0931C8.15902 39.8901 7.99402 39.6291 7.90402 39.3101L7.49902 37.2656L39.494 -3.62439H43.319V37.0481H65.0317Z" fill="white"/>
</g>
<defs>
<linearGradient id="paint0_linear_1457_20129" x1="69" y1="-17.4" x2="19.6538" y2="59.5417" gradientUnits="userSpaceOnUse">
<stop stop-color="#FF00AA"/>
<stop offset="1" stop-color="#8912DE"/>
</linearGradient>
<linearGradient id="paint1_linear_1457_20129" x1="69" y1="-17.4" x2="19.6538" y2="59.5417" gradientUnits="userSpaceOnUse">
<stop stop-color="#FF00AA"/>
<stop offset="1" stop-color="#8912DE"/>
</linearGradient>
</defs>
</svg>
